<svg width="224" height="33" viewBox="0 0 224 33" fill="none" xmlns="http://www.w3.org/2000/svg">
<g clip-path="url(#clip0_37_70)">
<path d="M66.1067 11C66.8184 11 67.3374 11.1475 67.6639 11.4427C67.9901 11.738 68.1534 12.1905 68.1534 12.8V14.9142C68.1534 15.2189 68.1334 15.4712 68.0937 15.6714C68.054 15.8716 67.9852 16.0479 67.8862 16.2C67.7872 16.3526 67.6488 16.4858 67.4708 16.6002C67.2928 16.7141 67.0755 16.8285 66.8184 16.9431L53.6481 22.5145C53.5494 22.5527 53.4852 22.6048 53.4553 22.6714C53.4255 22.7384 53.4107 22.8192 53.4107 22.9143V23.1145C53.4107 23.2478 53.4995 23.3144 53.6776 23.3144H67.4705C67.8265 23.3144 68.0045 23.4859 68.0045 23.8288V26.172C68.0045 26.5149 67.8265 26.6864 67.4705 26.6864H51.067C50.3552 26.6864 49.8363 26.5437 49.5097 26.2579C49.1835 25.9721 49.0202 25.5246 49.0202 24.9152V22.8006C49.0202 22.2105 49.1091 21.7769 49.2871 21.5009C49.4651 21.2246 49.8212 20.9723 50.3549 20.7436L63.5252 15.1722C63.6832 15.1151 63.7622 14.9913 63.7622 14.8009V14.6006C63.7622 14.4481 63.6734 14.3723 63.4954 14.3723H49.7025C49.3464 14.3723 49.1684 14.2009 49.1684 13.8579V11.5148C49.1684 11.1718 49.3464 11.0003 49.7025 11.0003H66.106L66.1067 11Z" fill="#F1593A"/>
<path d="M86.8108 11C88.1359 11 89.2529 11.1092 90.163 11.3284C91.0724 11.5479 91.7992 11.8905 92.3431 12.3569C92.887 12.8237 93.2775 13.4236 93.5148 14.1572C93.7518 14.8905 93.8709 15.7712 93.8709 16.8V26.0573C93.8709 26.4764 93.6532 26.6861 93.2181 26.6861H90.3112C89.8761 26.6861 89.6584 26.4764 89.6584 26.0573V17.7717C89.6584 17.1812 89.6187 16.681 89.5401 16.2717C89.4611 15.8622 89.3073 15.5385 89.0801 15.3001C88.8526 15.0623 88.5411 14.8908 88.1458 14.7856C87.7504 14.6811 87.2364 14.6287 86.6036 14.6287H78.7131C78.0804 14.6287 77.5562 14.6811 77.1412 14.7856C76.7258 14.8905 76.3947 15.062 76.1471 15.3001C75.9003 15.5382 75.7272 15.8618 75.6282 16.2717C75.5295 16.681 75.4796 17.1812 75.4796 17.7717V26.0573C75.4796 26.4764 75.2623 26.6861 74.8272 26.6861H71.9199C71.4652 26.6861 71.2377 26.4764 71.2377 26.0573V16.8C71.2377 15.7715 71.3564 14.8908 71.5937 14.1572C71.8307 13.4236 72.2215 12.8237 72.7654 12.3569C73.3097 11.8905 74.0312 11.5476 74.9308 11.3284C75.8304 11.1092 76.953 11 78.2978 11H86.8108Z" fill="#F1593A"/>
<path d="M110.719 11C112.044 11 113.161 11.1092 114.071 11.3284C114.981 11.5479 115.707 11.8905 116.251 12.3569C116.795 12.8237 117.186 13.4236 117.423 14.1572C117.66 14.8905 117.779 15.7712 117.779 16.8V24.4004C117.779 24.8573 117.744 25.2338 117.675 25.529C117.606 25.8243 117.487 26.0576 117.319 26.2288C117.151 26.4003 116.929 26.5193 116.652 26.5863C116.375 26.6529 116.019 26.6861 115.584 26.6861H101.465C100.595 26.6861 99.8678 26.6052 99.2845 26.4432C98.7013 26.2815 98.2315 26.0387 97.8755 25.7147C97.5194 25.391 97.2677 24.972 97.1191 24.4576C96.971 23.9431 96.8965 23.3337 96.8965 22.6288V21.2574C96.8965 20.6668 96.971 20.1382 97.1191 19.6715C97.2677 19.2047 97.5194 18.8097 97.8755 18.486C98.2315 18.162 98.7013 17.9192 99.2845 17.7575C99.8678 17.5955 100.595 17.5147 101.465 17.5147H113.537V16.9719C113.537 16.5149 113.488 16.1243 113.389 15.8006C113.29 15.4766 113.122 15.2148 112.885 15.0149C112.648 14.8147 112.321 14.6669 111.906 14.5719C111.491 14.4768 110.957 14.4292 110.304 14.4292H97.905C97.5489 14.4292 97.3709 14.2577 97.3709 13.9147V11.5148C97.3709 11.1718 97.5489 11.0003 97.905 11.0003H110.719L110.719 11ZM112.677 23.543C112.993 23.543 113.216 23.4713 113.344 23.3286C113.473 23.1855 113.537 22.9332 113.537 22.5713V20.057H102.681C102.068 20.057 101.638 20.1761 101.39 20.4145C101.143 20.6523 101.019 21 101.019 21.4573V22.0572C101.019 22.5717 101.143 22.9478 101.39 23.1859C101.637 23.424 102.068 23.5434 102.681 23.5434H112.677V23.543Z" fill="#F1593A"/>
<path d="M124.512 5.25684C124.947 5.25684 125.165 5.46653 125.165 5.88524V17.1999H130.622C131.038 17.1999 131.389 17.1853 131.675 17.1569C131.962 17.1282 132.214 17.0713 132.432 16.9854C132.649 16.8999 132.842 16.7805 133.01 16.6279C133.178 16.4758 133.361 16.2661 133.559 15.9995L136.881 11.4851C137 11.3136 137.124 11.1898 137.252 11.1134C137.381 11.0376 137.554 10.9994 137.771 10.9994H141.124C141.341 10.9994 141.48 11.0802 141.539 11.2419C141.598 11.4039 141.558 11.5801 141.42 11.7708L137.593 16.8282C137 17.6091 136.387 18.2186 135.754 18.6569C136.565 19.0949 137.267 19.7043 137.861 20.4853L142.073 25.9711C142.191 26.1237 142.216 26.2809 142.147 26.4426C142.078 26.6046 141.934 26.6854 141.717 26.6854H138.395C138.138 26.6854 137.95 26.6567 137.831 26.5999C137.713 26.5427 137.594 26.4379 137.475 26.2857L133.856 21.4857C133.5 21.0285 133.12 20.7143 132.714 20.5428C132.309 20.3713 131.701 20.2857 130.89 20.2857H125.165V26.057C125.165 26.4761 124.948 26.6858 124.513 26.6858H121.606C121.15 26.6858 120.923 26.4761 120.923 26.057V5.88524C120.923 5.46653 121.15 5.25684 121.606 5.25684H124.513H124.512Z" fill="#F1593A"/>
<path d="M148.064 22.686C148.499 22.686 148.717 22.8957 148.717 23.3144V26.0573C148.717 26.4764 148.499 26.6861 148.064 26.6861H145.157C144.702 26.6861 144.475 26.4764 144.475 26.0573V23.3144C144.475 22.8957 144.702 22.686 145.157 22.686H148.064ZM216.941 11C218.265 11 219.382 11.1092 220.292 11.3284C221.202 11.5479 221.929 11.8905 222.473 12.3569C223.017 12.8237 223.407 13.4236 223.644 14.1572C223.882 14.8905 224 15.7712 224 16.8V20.9144C224 21.9429 223.882 22.824 223.644 23.5576C223.407 24.2908 223.017 24.8908 222.473 25.3575C221.929 25.8243 221.202 26.1625 220.292 26.3719C219.383 26.5815 218.265 26.6861 216.941 26.6861H205.817V32.3718C205.817 32.7908 205.6 33.0002 205.165 33.0002H202.257C201.803 33.0002 201.575 32.7908 201.575 32.3718V16.8C201.575 15.7715 201.694 14.8908 201.931 14.1572C202.168 13.4236 202.559 12.8237 203.103 12.3569C203.647 11.8905 204.369 11.5476 205.268 11.3284C206.168 11.1092 207.29 11 208.635 11H216.941ZM205.817 23.2572H216.525C217.178 23.2572 217.712 23.2095 218.127 23.1145C218.542 23.0191 218.874 22.8477 219.121 22.6001C219.368 22.3525 219.541 22.0285 219.64 21.6284C219.739 21.2286 219.789 20.7237 219.789 20.1142V17.5712C219.789 16.9806 219.739 16.4808 219.64 16.0712C219.541 15.6619 219.368 15.3379 219.121 15.0998C218.874 14.8617 218.543 14.6903 218.127 14.5854C217.712 14.4806 217.178 14.4281 216.525 14.4281H209.05C208.418 14.4281 207.894 14.4806 207.479 14.5854C207.063 14.6899 206.732 14.8614 206.484 15.0998C206.238 15.3376 206.065 15.6616 205.966 16.0712C205.867 16.4808 205.817 16.9806 205.817 17.5712V23.2569V23.2572ZM191.105 11C192.43 11 193.547 11.1092 194.457 11.3284C195.366 11.5479 196.093 11.8905 196.637 12.3569C197.181 12.8237 197.571 13.4236 197.809 14.1572C198.046 14.8905 198.165 15.7712 198.165 16.8V20.9144C198.165 21.9429 198.046 22.824 197.809 23.5576C197.572 24.2908 197.181 24.8908 196.637 25.3575C196.093 25.8243 195.366 26.1625 194.457 26.3719C193.547 26.5815 192.43 26.6861 191.105 26.6861H179.981V32.3718C179.981 32.7908 179.764 33.0002 179.329 33.0002H176.421C175.967 33.0002 175.739 32.7908 175.739 32.3718V16.8C175.739 15.7715 175.858 14.8908 176.095 14.1572C176.332 13.4236 176.723 12.8237 177.267 12.3569C177.811 11.8905 178.533 11.5476 179.432 11.3284C180.332 11.1092 181.455 11 182.799 11H191.105ZM179.981 23.2572H190.689C191.342 23.2572 191.876 23.2095 192.291 23.1145C192.707 23.0191 193.038 22.8477 193.285 22.6001C193.532 22.3525 193.705 22.0285 193.804 21.6284C193.903 21.2286 193.953 20.7237 193.953 20.1142V17.5712C193.953 16.9806 193.903 16.4808 193.804 16.0712C193.706 15.6619 193.533 15.3379 193.285 15.0998C193.038 14.8617 192.707 14.6903 192.291 14.5854C191.876 14.4806 191.342 14.4281 190.689 14.4281H183.215C182.582 14.4281 182.058 14.4806 181.643 14.5854C181.227 14.6899 180.896 14.8614 180.649 15.0998C180.402 15.3376 180.229 15.6616 180.13 16.0712C180.031 16.4808 179.981 16.9806 179.981 17.5712V23.2569V23.2572ZM165.595 11C166.92 11 168.037 11.1092 168.947 11.3284C169.856 11.5479 170.583 11.8905 171.127 12.3569C171.671 12.8237 172.062 13.4236 172.299 14.1572C172.536 14.8905 172.655 15.7712 172.655 16.8V24.4004C172.655 24.8573 172.62 25.2338 172.551 25.529C172.482 25.8243 172.363 26.0577 172.195 26.2288C172.027 26.4003 171.805 26.5193 171.528 26.5863C171.251 26.6529 170.895 26.6861 170.46 26.6861H156.341C155.471 26.6861 154.744 26.6052 154.16 26.4432C153.577 26.2815 153.107 26.0387 152.751 25.7147C152.395 25.391 152.144 24.972 151.995 24.4576C151.847 23.9431 151.772 23.3337 151.772 22.6288V21.2574C151.772 20.6668 151.847 20.1382 151.995 19.6715C152.144 19.2047 152.395 18.8097 152.751 18.486C153.107 18.162 153.577 17.9192 154.16 17.7575C154.744 17.5955 155.471 17.5147 156.341 17.5147H168.413V16.9719C168.413 16.5149 168.364 16.1243 168.265 15.8006C168.166 15.4766 167.998 15.2148 167.761 15.0149C167.524 14.8147 167.197 14.6669 166.782 14.5719C166.367 14.4768 165.833 14.4292 165.18 14.4292H152.781C152.425 14.4292 152.247 14.2577 152.247 13.9147V11.5148C152.247 11.1718 152.425 11.0003 152.781 11.0003H165.595L165.595 11ZM167.553 23.543C167.869 23.543 168.092 23.4713 168.22 23.3286C168.349 23.1855 168.413 22.9332 168.413 22.5713V20.057H157.557C156.944 20.057 156.514 20.1761 156.266 20.4145C156.019 20.6523 155.895 21 155.895 21.4573V22.0572C155.895 22.5717 156.019 22.9478 156.266 23.1859C156.513 23.424 156.944 23.5434 157.557 23.5434H167.553V23.543Z" fill="#0874B4"/>
<path fill-rule="evenodd" clip-rule="evenodd" d="M2.58393 30.061H1.23631C0.553721 30.061 0.000347137 29.528 0.000347137 28.8705V25.2607C0.90625 26.7607 1.75141 28.397 2.58428 30.061H2.58393Z" fill="#F1593A"/>
<path fill-rule="evenodd" clip-rule="evenodd" d="M9.79042 30.0604H7.33781L7.10326 29.5879C5.03303 25.4153 2.96244 21.2421 -3.8147e-06 18.253V13.915C2.9017 16.3958 5.00985 20.6452 7.11766 24.8942C7.98634 26.6454 8.85538 28.397 9.79042 30.0607V30.0604Z" fill="#F1593A"/>
<path fill-rule="evenodd" clip-rule="evenodd" d="M14.6012 2.54937L19.3122 0.139253C19.6904 -0.0542061 20.1258 -0.0393247 20.4766 0.141958L39.1269 9.684C39.5444 9.89776 39.7828 10.3094 39.7832 10.7352L39.7835 23.7422C35.0862 24.0341 30.6248 24.0246 27.5124 22.2977L27.5145 22.2943C23.7241 20.1866 21.2364 15.1722 18.7494 10.1585C17.4418 7.52281 16.1339 4.88711 14.6012 2.54937Z" fill="#0874B4"/>
<path fill-rule="evenodd" clip-rule="evenodd" d="M8.24126 5.80427L10.7967 4.49707C12.2824 6.70223 13.5822 9.3217 14.8817 11.9412C17.6577 17.5373 20.4351 23.1344 25.3621 25.8749H25.3706C29.4496 28.1433 34.5297 28.2103 39.7835 27.8941V28.8708C39.7835 29.4035 39.4194 29.855 38.9184 30.0069L38.1873 30.0617H27.6093C26.1353 29.8212 24.7905 29.4154 23.6328 28.7717H23.6244C19.8452 26.6704 17.3561 21.6523 14.8673 16.6359C12.9112 12.6937 10.9555 8.75113 8.24126 5.80495V5.80427Z" fill="#F1593A"/>
<path fill-rule="evenodd" clip-rule="evenodd" d="M1.03582 9.49027L4.30866 7.81543C6.98844 10.3331 8.99407 14.3751 10.999 18.4164C13.1409 22.7344 15.2838 27.0521 18.4218 30.0605H14.743C13.3919 27.9639 12.1883 25.5379 10.985 23.1122C8.31008 17.7204 5.6345 12.3282 1.03547 9.49027H1.03582Z" fill="#F1593A"/>
</g>
<defs>
<clipPath id="clip0_37_70">
<rect width="224" height="33" fill="white"/>
</clipPath>
</defs>
</svg>
