<svg width="60" height="60" viewBox="0 0 60 60" fill="none" xmlns="http://www.w3.org/2000/svg">
<circle cx="30" cy="30" r="27" fill="#E34F31" stroke="#E34F31" stroke-width="6"/>
<circle cx="28.7692" cy="31.2308" r="27.5385" fill="white"/>
<mask id="mask0_4_390" style="mask-type:alpha" maskUnits="userSpaceOnUse" x="3" y="6" width="50" height="51">
<circle cx="28" cy="31.6921" r="24.4231" fill="#D9D9D9" stroke="black"/>
</mask>
<g mask="url(#mask0_4_390)">
<path d="M15.1458 35.8235H13.0818L9.97379 31.4795V35.8235H8.16179V27.2555H9.97379V31.4075L13.0458 27.2555H14.9778L11.8578 31.3715L15.1458 35.8235ZM19.7283 29.1515C20.4643 29.1515 21.0603 29.4395 21.5163 30.0155C21.9723 30.5835 22.2003 31.4235 22.2003 32.5355C22.2003 33.2795 22.0923 33.9075 21.8763 34.4195C21.6603 34.9235 21.3643 35.3035 20.9883 35.5595C20.6123 35.8155 20.1763 35.9435 19.6803 35.9435C19.3683 35.9435 19.0963 35.9035 18.8643 35.8235C18.6403 35.7435 18.4483 35.6395 18.2883 35.5115C18.1283 35.3835 17.9883 35.2475 17.8683 35.1035H17.7723C17.8043 35.2555 17.8283 35.4155 17.8443 35.5835C17.8603 35.7435 17.8683 35.9035 17.8683 36.0635V38.7035H16.0803V29.2715H17.5323L17.7843 30.1235H17.8683C17.9883 29.9475 18.1323 29.7875 18.3003 29.6435C18.4683 29.4915 18.6683 29.3715 18.9003 29.2835C19.1403 29.1955 19.4163 29.1515 19.7283 29.1515ZM19.1523 30.5795C18.8403 30.5795 18.5923 30.6435 18.4083 30.7715C18.2243 30.8995 18.0883 31.0955 18.0003 31.3595C17.9203 31.6155 17.8763 31.9395 17.8683 32.3315V32.5235C17.8683 32.9475 17.9083 33.3075 17.9883 33.6035C18.0683 33.8915 18.2043 34.1115 18.3963 34.2635C18.5883 34.4155 18.8483 34.4915 19.1763 34.4915C19.4483 34.4915 19.6723 34.4155 19.8483 34.2635C20.0243 34.1115 20.1563 33.8875 20.2443 33.5915C20.3323 33.2955 20.3763 32.9355 20.3763 32.5115C20.3763 31.8715 20.2763 31.3915 20.0763 31.0715C19.8843 30.7435 19.5763 30.5795 19.1523 30.5795ZM23.674 35.8235V29.2715H25.462V31.8035H26.326C26.998 31.8035 27.55 31.8755 27.982 32.0195C28.414 32.1555 28.734 32.3675 28.942 32.6555C29.158 32.9435 29.266 33.3035 29.266 33.7355C29.266 34.1595 29.166 34.5275 28.966 34.8395C28.774 35.1515 28.466 35.3955 28.042 35.5715C27.626 35.7395 27.074 35.8235 26.386 35.8235H23.674ZM26.29 34.5875C26.642 34.5875 26.926 34.5235 27.142 34.3955C27.366 34.2675 27.478 34.0555 27.478 33.7595C27.478 33.5035 27.374 33.3195 27.166 33.2075C26.966 33.0955 26.666 33.0395 26.266 33.0395H25.462V34.5875H26.29ZM30.214 35.8235V29.2715H32.002V35.8235H30.214ZM43.6253 29.2715V35.8235H33.8693V29.2715H35.6573V34.4795H37.8533V29.2715H39.6413V34.4795H41.8374V29.2715H43.6253ZM48.1823 29.1395C49.0623 29.1395 49.7343 29.3315 50.1983 29.7155C50.6704 30.0915 50.9064 30.6715 50.9064 31.4555V35.8235H49.6583L49.3103 34.9355H49.2623C49.0783 35.1675 48.8863 35.3595 48.6863 35.5115C48.4943 35.6635 48.2703 35.7715 48.0143 35.8355C47.7663 35.9075 47.4583 35.9435 47.0903 35.9435C46.7063 35.9435 46.3583 35.8715 46.0463 35.7275C45.7423 35.5755 45.5023 35.3475 45.3263 35.0435C45.1503 34.7315 45.0623 34.3395 45.0623 33.8675C45.0623 33.1715 45.3063 32.6595 45.7943 32.3315C46.2823 31.9955 47.0143 31.8115 47.9903 31.7795L49.1303 31.7435V31.4555C49.1303 31.1115 49.0383 30.8595 48.8543 30.6995C48.6783 30.5395 48.4303 30.4595 48.1103 30.4595C47.7903 30.4595 47.4783 30.5075 47.1743 30.6035C46.8703 30.6915 46.5663 30.8035 46.2623 30.9395L45.6743 29.7275C46.0263 29.5435 46.4143 29.3995 46.8383 29.2955C47.2703 29.1915 47.7183 29.1395 48.1823 29.1395ZM48.4343 32.8115C47.8583 32.8275 47.4583 32.9315 47.2343 33.1235C47.0103 33.3155 46.8983 33.5675 46.8983 33.8795C46.8983 34.1515 46.9783 34.3475 47.1383 34.4675C47.2983 34.5795 47.5063 34.6355 47.7623 34.6355C48.1463 34.6355 48.4703 34.5235 48.7343 34.2995C48.9983 34.0675 49.1303 33.7435 49.1303 33.3275V32.7875L48.4343 32.8115Z" fill="black"/>
</g>
</svg>
